<?xml version="1.0" encoding="UTF-8"?>
<svg width="51px" height="39px" viewBox="0 0 51 39" version="1.1" xmlns="http://www.w3.org/2000/svg" xmlns:xlink="http://www.w3.org/1999/xlink">
    <!-- Generator: Sketch 57.1 (83088) - https://sketch.com -->
    <title>default_electrical_equipment</title>
    <desc>Created with Sketch.</desc>
    <g id="Graphic" stroke="none" stroke-width="1" fill="none" fill-rule="evenodd">
        <g id="Default/电气设备" transform="translate(-4.000000, -10.000000)" fill="#000000">
            <g id="编组" transform="translate(4.000000, 10.000000)">
                <path d="M39.6568321,38 L2.28571429,38 C1.02334914,38 0,37.1045695 0,36 L0,23 C0,21.8954305 1.02334914,21 2.28571429,21 L46,21 C46.7465325,21 47.3975336,21.4090188 47.7411302,22.0151834 L38.7315179,29.0858921 L42.273972,32.5498115 L39.6568321,38 L39.6568321,38 Z M48,2 L48,15 C48,16.1045695 47.1045695,17 46,17 L2.36453202,17 C1.05863704,17 0,16.1045695 0,15 L0,2 C0,0.8954305 1.05863704,-3.55271368e-15 2.36453202,-3.55271368e-15 L46,-3.55271368e-15 C47.1045695,-3.55271368e-15 48,0.8954305 48,2 Z" id="形状" opacity="0.0799999982"></path>
                <path d="M44.8512553,32 L42,29.0631651 L51,22 L47.1487447,29.0631651 L50,32 L42,39 L44.8613714,32 L44.8512553,32 Z" id="形状结合" fill-opacity="0.32"></path>
                <path d="M8.5,33 C6.575,33 5,31.425 5,29.5 C5,27.575 6.575,26 8.5,26 C10.425,26 12,27.575 12,29.5 C12,31.425 10.425,33 8.5,33 Z" id="Path" opacity="0.0799999982"></path>
                <path d="M8.5,12 C6.575,12 5,10.425 5,8.5 C5,6.575 6.575,5 8.5,5 C10.425,5 12,6.575 12,8.5 C12,10.425 10.425,12 8.5,12 Z" id="Path备份" opacity="0.0799999982"></path>
            </g>
        </g>
    </g>
</svg>